<svg width="66" height="66" viewBox="0 0 66 66" fill="none" xmlns="http://www.w3.org/2000/svg">
<path d="M18.4448 14.5555C17.3709 13.4815 15.6297 13.4815 14.5557 14.5555C13.4818 15.6294 13.4818 17.3706 14.5557 18.4445L29.111 32.9999L14.5555 47.5555C13.4815 48.6294 13.4815 50.3706 14.5555 51.4445C15.6294 52.5185 17.3706 52.5185 18.4445 51.4445L33.0001 36.889L47.5557 51.4446C48.6297 52.5185 50.3709 52.5185 51.4448 51.4446C52.5188 50.3706 52.5188 48.6294 51.4448 47.5555L36.8892 32.9999L51.4445 18.4445C52.5185 17.3706 52.5185 15.6294 51.4445 14.5555C50.3706 13.4815 48.6294 13.4815 47.5555 14.5555L33.0001 29.1108L18.4448 14.5555Z" fill="#535763"/>
</svg>
